<mxfile host="app.diagrams.net" agent="Mozilla/5.0 (Windows NT 10.0; Win64; x64) AppleWebKit/537.36 (KHTML, like Gecko) Chrome/133.0.0.0 Safari/537.36 Edg/133.0.0.0" version="26.0.4">
  <diagram name="Page-1" id="TMoFdE-1pfGjDBiYzTVH">
    <mxGraphModel dx="1173" dy="698" grid="1" gridSize="10" guides="1" tooltips="1" connect="1" arrows="1" fold="1" page="1" pageScale="1" pageWidth="850" pageHeight="1100" math="0" shadow="0">
      <root>
        <mxCell id="0" />
        <mxCell id="1" parent="0" />
        <mxCell id="4t8TNOY-oixhN25wSjqf-1" value="" style="whiteSpace=wrap;html=1;aspect=fixed;" vertex="1" parent="1">
          <mxGeometry x="320" y="240" width="120" height="120" as="geometry" />
        </mxCell>
        <mxCell id="4t8TNOY-oixhN25wSjqf-2" value="" style="triangle;whiteSpace=wrap;html=1;" vertex="1" parent="1">
          <mxGeometry x="560" y="240" width="120" height="120" as="geometry" />
        </mxCell>
        <mxCell id="4t8TNOY-oixhN25wSjqf-3" value="" style="triangle;whiteSpace=wrap;html=1;rotation=-180;" vertex="1" parent="1">
          <mxGeometry x="200" y="240" width="120" height="120" as="geometry" />
        </mxCell>
        <mxCell id="4t8TNOY-oixhN25wSjqf-5" value="" style="endArrow=none;html=1;rounded=0;exitX=0;exitY=1;exitDx=0;exitDy=0;entryX=1;entryY=0;entryDx=0;entryDy=0;" edge="1" parent="1" source="4t8TNOY-oixhN25wSjqf-1" target="4t8TNOY-oixhN25wSjqf-1">
          <mxGeometry width="50" height="50" relative="1" as="geometry">
            <mxPoint x="400" y="390" as="sourcePoint" />
            <mxPoint x="450" y="340" as="targetPoint" />
          </mxGeometry>
        </mxCell>
        <mxCell id="4t8TNOY-oixhN25wSjqf-6" value="" style="whiteSpace=wrap;html=1;aspect=fixed;" vertex="1" parent="1">
          <mxGeometry x="440" y="240" width="120" height="120" as="geometry" />
        </mxCell>
        <mxCell id="4t8TNOY-oixhN25wSjqf-7" value="" style="endArrow=none;html=1;rounded=0;exitX=0;exitY=1;exitDx=0;exitDy=0;entryX=1;entryY=0;entryDx=0;entryDy=0;" edge="1" parent="1" source="4t8TNOY-oixhN25wSjqf-6" target="4t8TNOY-oixhN25wSjqf-6">
          <mxGeometry width="50" height="50" relative="1" as="geometry">
            <mxPoint x="400" y="290" as="sourcePoint" />
            <mxPoint x="450" y="240" as="targetPoint" />
          </mxGeometry>
        </mxCell>
        <mxCell id="4t8TNOY-oixhN25wSjqf-8" value="D" style="ellipse;whiteSpace=wrap;html=1;aspect=fixed;" vertex="1" parent="1">
          <mxGeometry x="420" y="220" width="40" height="40" as="geometry" />
        </mxCell>
        <mxCell id="4t8TNOY-oixhN25wSjqf-10" value="E" style="ellipse;whiteSpace=wrap;html=1;aspect=fixed;" vertex="1" parent="1">
          <mxGeometry x="420" y="340" width="40" height="40" as="geometry" />
        </mxCell>
        <mxCell id="4t8TNOY-oixhN25wSjqf-11" value="C" style="ellipse;whiteSpace=wrap;html=1;aspect=fixed;" vertex="1" parent="1">
          <mxGeometry x="300" y="340" width="40" height="40" as="geometry" />
        </mxCell>
        <mxCell id="4t8TNOY-oixhN25wSjqf-12" value="A" style="ellipse;whiteSpace=wrap;html=1;aspect=fixed;" vertex="1" parent="1">
          <mxGeometry x="180" y="280" width="40" height="40" as="geometry" />
        </mxCell>
        <mxCell id="4t8TNOY-oixhN25wSjqf-14" value="B" style="ellipse;whiteSpace=wrap;html=1;aspect=fixed;" vertex="1" parent="1">
          <mxGeometry x="300" y="220" width="40" height="40" as="geometry" />
        </mxCell>
        <mxCell id="4t8TNOY-oixhN25wSjqf-15" value="F" style="ellipse;whiteSpace=wrap;html=1;aspect=fixed;" vertex="1" parent="1">
          <mxGeometry x="540" y="220" width="40" height="40" as="geometry" />
        </mxCell>
        <mxCell id="4t8TNOY-oixhN25wSjqf-16" value="G" style="ellipse;whiteSpace=wrap;html=1;aspect=fixed;" vertex="1" parent="1">
          <mxGeometry x="540" y="340" width="40" height="40" as="geometry" />
        </mxCell>
        <mxCell id="4t8TNOY-oixhN25wSjqf-17" value="Z" style="ellipse;whiteSpace=wrap;html=1;aspect=fixed;" vertex="1" parent="1">
          <mxGeometry x="660" y="280" width="40" height="40" as="geometry" />
        </mxCell>
        <mxCell id="4t8TNOY-oixhN25wSjqf-20" value="4" style="text;html=1;align=center;verticalAlign=middle;resizable=0;points=[];autosize=1;strokeColor=none;fillColor=none;" vertex="1" parent="1">
          <mxGeometry x="245" y="330" width="30" height="30" as="geometry" />
        </mxCell>
        <mxCell id="4t8TNOY-oixhN25wSjqf-21" value="3" style="text;html=1;align=center;verticalAlign=middle;resizable=0;points=[];autosize=1;strokeColor=none;fillColor=none;" vertex="1" parent="1">
          <mxGeometry x="290" y="285" width="30" height="30" as="geometry" />
        </mxCell>
        <mxCell id="4t8TNOY-oixhN25wSjqf-22" value="a" style="text;html=1;align=center;verticalAlign=middle;resizable=0;points=[];autosize=1;strokeColor=none;fillColor=none;" vertex="1" parent="1">
          <mxGeometry x="245" y="240" width="30" height="30" as="geometry" />
        </mxCell>
        <mxCell id="4t8TNOY-oixhN25wSjqf-23" value="6" style="text;html=1;align=center;verticalAlign=middle;resizable=0;points=[];autosize=1;strokeColor=none;fillColor=none;" vertex="1" parent="1">
          <mxGeometry x="365" y="210" width="30" height="30" as="geometry" />
        </mxCell>
        <mxCell id="4t8TNOY-oixhN25wSjqf-24" value="1" style="text;html=1;align=center;verticalAlign=middle;resizable=0;points=[];autosize=1;strokeColor=none;fillColor=none;" vertex="1" parent="1">
          <mxGeometry x="410" y="285" width="30" height="30" as="geometry" />
        </mxCell>
        <mxCell id="4t8TNOY-oixhN25wSjqf-25" value="4" style="text;html=1;align=center;verticalAlign=middle;resizable=0;points=[];autosize=1;strokeColor=none;fillColor=none;" vertex="1" parent="1">
          <mxGeometry x="350" y="285" width="30" height="30" as="geometry" />
        </mxCell>
        <mxCell id="4t8TNOY-oixhN25wSjqf-26" value="7" style="text;html=1;align=center;verticalAlign=middle;resizable=0;points=[];autosize=1;strokeColor=none;fillColor=none;" vertex="1" parent="1">
          <mxGeometry x="365" y="360" width="30" height="30" as="geometry" />
        </mxCell>
        <mxCell id="4t8TNOY-oixhN25wSjqf-27" value="6" style="text;html=1;align=center;verticalAlign=middle;resizable=0;points=[];autosize=1;strokeColor=none;fillColor=none;" vertex="1" parent="1">
          <mxGeometry x="485" y="210" width="30" height="30" as="geometry" />
        </mxCell>
        <mxCell id="4t8TNOY-oixhN25wSjqf-28" value="6" style="text;html=1;align=center;verticalAlign=middle;resizable=0;points=[];autosize=1;strokeColor=none;fillColor=none;" vertex="1" parent="1">
          <mxGeometry x="485" y="360" width="30" height="30" as="geometry" />
        </mxCell>
        <mxCell id="4t8TNOY-oixhN25wSjqf-29" value="b" style="text;html=1;align=center;verticalAlign=middle;resizable=0;points=[];autosize=1;strokeColor=none;fillColor=none;" vertex="1" parent="1">
          <mxGeometry x="470" y="285" width="30" height="30" as="geometry" />
        </mxCell>
        <mxCell id="4t8TNOY-oixhN25wSjqf-30" value="3" style="text;html=1;align=center;verticalAlign=middle;resizable=0;points=[];autosize=1;strokeColor=none;fillColor=none;" vertex="1" parent="1">
          <mxGeometry x="530" y="285" width="30" height="30" as="geometry" />
        </mxCell>
        <mxCell id="4t8TNOY-oixhN25wSjqf-31" value="8" style="text;html=1;align=center;verticalAlign=middle;resizable=0;points=[];autosize=1;strokeColor=none;fillColor=none;" vertex="1" parent="1">
          <mxGeometry x="605" y="240" width="30" height="30" as="geometry" />
        </mxCell>
        <mxCell id="4t8TNOY-oixhN25wSjqf-32" value="5" style="text;html=1;align=center;verticalAlign=middle;resizable=0;points=[];autosize=1;strokeColor=none;fillColor=none;" vertex="1" parent="1">
          <mxGeometry x="605" y="330" width="30" height="30" as="geometry" />
        </mxCell>
      </root>
    </mxGraphModel>
  </diagram>
</mxfile>
